<?xml version="1.0" encoding="UTF-8" standalone="no"?>
<!-- Created with Inkscape (http://www.inkscape.org/) -->

<svg
   xmlns:dc="http://purl.org/dc/elements/1.1/"
   xmlns:cc="http://creativecommons.org/ns#"
   xmlns:rdf="http://www.w3.org/1999/02/22-rdf-syntax-ns#"
   xmlns:svg="http://www.w3.org/2000/svg"
   xmlns="http://www.w3.org/2000/svg"
   version="1.1"
   width="300"
   height="320"
   viewBox="0 0 84.66667 90.31111"
   id="svg2"
   xml:space="preserve"
   style="fill-rule:evenodd"><metadata
   id="metadata77"><rdf:RDF><cc:Work
       rdf:about=""><dc:format>image/svg+xml</dc:format><dc:type
         rdf:resource="http://purl.org/dc/dcmitype/StillImage" /><dc:title></dc:title></cc:Work></rdf:RDF></metadata>
 <defs
   id="defs4"><style
     type="text/css"
     id="style6" /></defs>
 <g
   transform="matrix(0.08063493,0,0,0.08063493,2.8222223,42.333332)"
   id="g4011"><path
     d="m 0,20 0,100 60,0 0,-20.000001 -40,0 L 20,20 z"
     id="rect3023"
     style="fill:#9000cc;fill-opacity:1;stroke:none" /><path
     d="m 80,20 0,100 60,0 0,-20.000001 -40,0 0,-20 40,0 L 140,60 l -40,0 0,-20 40,0 0,-20 z"
     id="rect3004"
     style="fill:#9000cc;fill-opacity:1;stroke:none" /><path
     d="m 210,40.000003 0,20 20,0 c 5.52285,0 10,4.47715 10,10 0,5.52285 -4.47715,9.999995 -10,9.999995 l -20,0 0,20 20,0 c 16.56854,0 30,-13.43146 30,-29.999995 0,-16.56854 -13.43146,-30 -30,-30 z m 20,-40 c -38.65993,0 -70,31.34007 -70,70 C 160,108.65993 191.34007,140 230,140 c 38.65993,0 70,-31.34007 70,-69.999997 0,-38.65993 -31.34007,-70 -70,-70 z m 0,20 c 27.61424,0 50,22.38576 50,50 C 280,97.614236 257.61424,120 230,120 c -27.61424,0 -50,-22.385764 -50,-49.999997 0,-27.61424 22.38576,-50 50,-50 z"
     id="path3029"
     style="fill:#9000cc;fill-opacity:1;stroke:none" /><path
     d="m 320,20 0,100 20,0 0,-62.78125 40,62.78125 20,0 0,-100 -20,0 0,62.78125 L 340,20 z"
     id="rect3051"
     style="fill:#ff0000;fill-opacity:1;stroke:none" /><rect
     width="20"
     height="100"
     x="420"
     y="20"
     id="rect3002"
     style="fill:#9000cc;fill-opacity:1;stroke:none" /><path
     d="m 460,20 0,100 50,0 c 16.56854,0 30,-13.43146 30,-30 l 0,-40 C 540,33.43146 526.56854,20 510,20 z m 20,20 30,0 c 5.52285,0 10,4.47715 10,10 l 0,40 c 0,5.522847 -4.47715,10 -10,10 l -30,0 z"
     id="path3053"
     style="fill:#9000cc;fill-opacity:1;stroke:none" /><path
     d="m 660,20 -20,20 30,0 c 5.52285,0 10,4.47715 10,10 0,5.52285 -4.47715,10 -10,10 -16.56854,0 -30,13.43146 -30,30 l 0,30 60,0 0,-20 -40,0 0,-10 c 0,-5.52285 4.47715,-10 10,-10 16.56854,0 30,-13.43146 30,-30 0,-16.56853 -13.43146,-30 -30,-30 l -10,0 z"
     id="path3071"
     style="fill:#9000cc;fill-opacity:1;stroke:none" /><path
     d="m 790,3e-6 c -38.65993,0 -70,31.34007 -70,70 C 720,108.65993 751.34007,140 790,140 c 38.65993,0 70,-31.34007 70,-69.999997 0,-38.65993 -31.34007,-70 -70,-70 z m 0,20 c 27.61424,0 50,22.38576 50,50 C 840,97.614238 817.61424,120 790,120 c -27.61424,0 -50,-22.385762 -50,-49.999997 0,-27.61424 22.38576,-50 50,-50 z"
     id="path3041"
     style="fill:#9000cc;fill-opacity:1;stroke:none" /><path
     d="m 880,40 0,80 20,0 0,-100 z"
     id="rect3068"
     style="fill:#9000cc;fill-opacity:1;stroke:none" /><path
     d="m 920,20 0,60 30,0 c 5.52285,0 10,4.47715 10,10 0,5.52285 -4.47715,10 -10,10 l -30,0 20,20 10,0 c 16.56854,0 30,-13.43146 30,-30 0,-16.56854 -13.43146,-30 -30,-30 l -10,0 0,-20 40,0 0,-20 z"
     id="path3043"
     style="fill:#9000cc;fill-opacity:1;stroke:none" /></g><path
   d="m 42.321781,1.0852321 c 4.46587,0 8.23352,2.99535 9.40343,7.08601 7.30554,1.75413 13.834,5.5050199 18.97386,10.6448299 6.69742,6.69739 11.03893,15.7521 11.67362,25.8124 l -2.36991,0.87694 c 1.30388,4.17118 1.93712,8.59315 1.7999,13.11191 l -3.26087,0.0266 c -0.38758,7.93646 -4.32774,15.61611 -10.8765,20.44517 l -1.09936,-1.47175 c -5.93951,6.68581 -14.59985,10.90066 -24.24413,10.90066 -9.64427,0 -18.30461,-4.21485 -24.24412,-10.90062 l -1.09936,1.47171 C 10.429571,74.260032 6.4894113,66.580382 6.1018413,58.643922 l -3.26088,-0.0266 c -0.13721,-4.51876 0.49602,-8.94073 1.79991,-13.11191 l -2.36991,-0.87694 c 0.63469,-10.0603 4.97619,-19.11501 11.6736197,-25.8124 5.13985,-5.13981 11.66827,-8.8906599 18.97381,-10.6447799 1.16992,-4.09067 4.93756,-7.08606 9.40339,-7.08606 z"
   id="path10"
   style="fill:#ffffff;fill-rule:nonzero" /><path
   d="m 42.324529,0.27338793 c -4.477964,0 -8.309892,2.77582497 -9.860139,6.70277797 C 13.925522,11.415635 0.14111111,28.095702 0.14111111,47.995417 c 0,23.294595 18.88879489,42.174557 42.18341789,42.174557 23.294623,0 42.174585,-18.879962 42.174585,-42.174557 0,-19.901719 -13.781561,-36.581814 -32.323279,-41.0192511 -1.550219,-3.926953 -5.373342,-6.70277797 -9.851306,-6.70277797 z"
   id="circle12"
   style="fill:#ffffff;stroke:#000000;stroke-width:0.28222224;stroke-miterlimit:4;stroke-opacity:1;stroke-dasharray:none" /><path
   d="m 51.648911,16.775452 c 8.58513,2.61273 15.6422,8.73695 19.4961,16.70003 1.23885,2.5961 2.13696,5.38455 2.63641,8.30714 l -3.55329,1.33152 0.53066,1.16746 0.001,0.002 c 1.20451,2.65645 2.04408,5.47257 2.48367,8.35736 l -61.84347,0 c 0.43958,-2.88479 1.27915,-5.70091 2.48366,-8.35736 l 8.8e-4,-0.002 0.53067,-1.16746 -3.55329,-1.33152 c 0.49931,-2.92189 1.39712,-5.70963 2.63549,-8.30521 3.85368,-7.964 10.91119,-14.08897 19.49702,-16.70196 1.9587,3.08389 5.40398,5.13122 9.32695,5.13122 3.92302,0 7.3683,-2.04738 9.32704,-5.13122 z"
   id="_155966352"
   style="fill:#001268;fill-opacity:1" /><path
   d="m 52.757511,17.135492 c 0.43897,0.15138 0.87369,0.31192 1.30385,0.48155 l -10.65825,16.11103 -0.0284,-0.0174 9.38282,-16.57522 z m 3.1862,1.29533 c 0.44055,0.20765 0.87544,0.42542 1.30472,0.65232 l -13.58781,14.83556 -0.0254,-0.0217 12.30844,-15.46622 z m 3.17269,1.72106 c 0.43866,0.27101 0.87017,0.55251 1.2945,0.84374 l -16.52562,13.15151 -0.0217,-0.0253 15.25279,-13.96991 z m 3.1237,2.19665 c 0.43011,0.34249 0.85123,0.69586 1.26288,1.05962 l -19.43124,10.99956 -0.0174,-0.0284 18.18573,-12.03076 z m 3.01385,2.72793 c 0.41034,0.42152 0.80896,0.85452 1.1957,1.29814 l -22.23464,8.31969 -0.0126,-0.0308 21.05157,-9.58704 z m 2.81178,3.30885 c 0.37499,0.50694 0.73559,1.02511 1.0808,1.55433 l -24.83491,5.06022 -0.008,-0.0324 23.76183,-6.58218 z m 2.48196,3.91876 c 0.20676,0.38578 0.40621,0.7762 0.59741,1.17123 0.1034,0.21672 0.20431,0.43467 0.30293,0.65403 l -27.0891,1.18754 -0.003,-0.0333 26.19139,-2.97947 z m 1.97172,4.53442 c 0.23391,0.68152 0.44533,1.37335 0.63346,2.07465 l -28.79652,-3.27583 0.003,-0.0333 28.16043,1.23451 z m 1.01467,5.03666 -3.30587,1.23881 0.0107,0.0236 -25.93502,-7.1842 0,-4e-5 0.008,-0.0324 29.22242,5.95416 z m -1.86831,4.62287 c 0.31876,0.87053 0.5996,1.7547 0.84149,2.64961 l -28.30484,-12.89024 0.0126,-0.0308 27.45072,10.27141 z m 0.89697,6.14317 -4.1721,0 -24.33618,-16.09959 0.0174,-0.0284 28.49091,16.128 z m -56.3092,0 -4.17211,0 28.49087,-16.128 0.0174,0.0284 -24.33613,16.09959 z m -4.11659,-3.49369 c 0.24185,-0.89491 0.52278,-1.77908 0.8415,-2.64957 l 27.45054,-10.27137 0.0126,0.0308 -28.30467,12.89015 z m 2.26826,-6.00995 0.0108,-0.0236 -3.30583,-1.23876 29.22238,-5.95421 0.008,0.0324 -25.93502,7.18419 z m -2.91391,-4.22446 c 0.18813,-0.7013 0.39964,-1.39317 0.63351,-2.07469 l 28.1603,-1.23447 0.003,0.0333 -28.79644,3.27583 z m 1.70484,-4.78367 c 0.0983,-0.2187 0.19892,-0.43612 0.30201,-0.65219 0.19147,-0.39569 0.39122,-0.78672 0.59834,-1.17311 l 26.19125,2.97947 -0.003,0.0333 -27.08897,-1.1875 z m 2.30154,-4.18969 c 0.34522,-0.52922 0.70582,-1.04752 1.08085,-1.55442 l 23.76174,6.58218 0,5e-5 -0.008,0.0324 -24.83488,-5.06017 z m 2.69684,-3.56504 c 0.38683,-0.44353 0.78541,-0.87658 1.1957,-1.29814 l 21.05144,9.587 -0.0126,0.0308 -22.23451,-8.31964 z m 2.94671,-2.96649 c 0.4117,-0.36372 0.83264,-0.71722 1.26284,-1.05963 l 18.18573,12.03072 -0.0174,0.0284 -19.4312,-10.99951 z m 3.09204,-2.4125 c 0.42428,-0.29127 0.85584,-0.57276 1.29451,-0.84377 l 15.25274,13.9699 -0.0217,0.0254 -16.52558,-13.15148 z m 3.16243,-1.91252 c 0.42932,-0.22681 0.86417,-0.44463 1.30472,-0.65232 l 12.30848,15.46627 -0.0253,0.0217 -13.58786,-14.83561 z m 3.18712,-1.46605 c 0.43011,-0.16972 0.86487,-0.33017 1.30379,-0.48164 l 9.38283,16.57522 -0.0284,0.0174 -10.6582,-16.11094 z m 4.32177,1.42487 c 0.52023,0.47221 1.08554,0.89562 1.68887,1.26271 l 4.9626,13.26264 -0.0308,0.0126 -6.62068,-14.53798 z m 3.52316,2.15714 c 0.32609,0.12301 0.65942,0.23106 0.99933,0.32328 l 2.43455,11.94845 -0.0324,0.008 -3.40151,-12.27945 z m 2.39552,0.60605 c 0.28005,0.038 0.5633,0.0655 0.84957,0.0821 l 0.50576,11.53619 -0.0333,0.003 -1.322,-11.62091 z m 2.14815,0.0821 c 0.28627,-0.0166 0.56956,-0.044 0.84957,-0.082 l -1.32196,11.62087 -0.0333,-0.003 0.50571,-11.53619 z m 2.24581,-0.36481 c 0.33986,-0.0921 0.67327,-0.20024 0.99928,-0.3232 l -3.40147,12.27932 -0.0324,-0.008 2.43455,-11.9484 z m 2.83361,-1.21763 c 0.60338,-0.36701 1.16869,-0.79045 1.68888,-1.26262 l -6.62065,14.5378 -0.0308,-0.0126 4.96255,-13.26255 z"
   id="_155966448"
   style="fill:#fb8a0a;fill-opacity:1" /><path
   d="m 24.571781,77.530052 c -2.39175,-0.67556 -6.00854,-1.1508 -5.74275,-4.39019 -0.28491,0.07 -0.56487,0.10284 -0.81698,0.0711 l 1.27266,-1.38975 c 0.27584,-0.12161 0.58684,-0.17792 0.89307,-0.1698 1.17719,0.031 1.5613,0.86978 2.10206,1.77473 0.41862,0.70051 0.97775,1.46501 2.3921,2.27454 -0.94824,0.20672 -2.03356,-0.1752 -2.34496,-1.11006 -0.18318,0.12533 -0.32675,0.32982 -0.44901,0.58048 -0.24036,-0.47861 -0.17923,-0.90762 -0.20813,-1.41461 -0.0133,-0.23264 -0.13564,-0.4316 -0.39714,-0.5347 -0.17361,-0.0685 -0.50729,0.0993 -0.43572,0.32381 0.0108,0.0715 0.14621,0.16805 0.24711,0.13577 0.37929,-0.0994 0.33429,0.25233 0.10762,0.41336 -0.35048,0.23374 -0.83198,0.12967 -0.9781,-0.28163 -0.11336,-0.31894 0.13642,-0.66691 0.39805,-0.85759 -0.73528,-0.29114 -1.41974,0.41248 -1.26652,1.08063 0.18677,0.81462 0.9774,0.84417 1.64129,1.04704 0.39328,0.12016 0.0141,0.40235 -0.14787,0.50256 0.55185,0.382 0.9956,0.39722 1.63945,0.31969 0.28119,-0.0339 0.3535,0.21931 0.0459,0.47304 l 2.69245,0.92666 -0.64455,0.22497 z"
   id="_155905104"
   style="fill:#fb8a0a;fill-opacity:1" /><path
   d="m 12.568291,68.689692 c -1.87735,-1.62857 -4.9486497,-3.59684 -3.3304697,-6.41563 -0.84395,-0.16958 -1.51399,-0.61223 -1.18737,-1.70102 0.0931,-0.31035 0.38087,-0.15927 0.44581,0.0704 0.18129,0.64126 0.58369,0.87118 1.24478,0.68441 0.4388297,-0.11704 0.9318797,-0.0378 1.3505397,0.17261 1.05221,0.52874 1.04314,1.45123 1.14773,2.50024 0.0809,0.81203 0.26184,1.74172 1.19767,3.07591 -0.94613,-0.21616 -1.76601,-1.02345 -1.65024,-2.00199 -0.21909,0.0356 -0.43599,0.15958 -0.65328,0.33447 -0.014,-0.53545 0.22383,-0.89772 0.41327,-1.36888 0.0869,-0.21619 0.0608,-0.44826 -0.13204,-0.65279 -0.12801,-0.13582 -0.50133,-0.12591 -0.53207,0.10774 -0.0206,0.0693 0.0609,0.21431 0.16594,0.228 0.38551,0.0713 0.19524,0.37051 -0.0784,0.41989 -0.41656,0.0625 -0.80808,-0.2365 -0.76546,-0.67087 0.0331,-0.33688 0.40713,-0.54562 0.72503,-0.60688 -0.54168,-0.57623 -1.4603997,-0.23054 -1.6059097,0.43936 -0.17738,0.81673 0.52563,1.1797 1.0401997,1.64568 0.30482,0.27597 -0.15835,0.37012 -0.34754,0.39192 0.33697,0.58044 0.73213,0.78295 1.34783,0.98661 0.26886,0.0889 0.22663,0.3488 -0.15967,0.44761 l 2.04272,1.98378 -0.67902,-0.0706 z"
   id="_157415344"
   style="fill:#fb8a0a;fill-opacity:1" /><path
   d="m 17.061491,74.221772 c -2.30927,-0.91886 -5.85764,-1.76487 -5.25892,-4.95949 -0.85272,0.11805 -1.6312,-0.079 -1.68172,-1.2146 -0.0144,-0.32368 0.30715,-0.27597 0.44414,-0.0805 0.38253,0.54566 0.83821,0.63012 1.4008,0.23593 0.37574,-0.25519 0.86733,-0.34285 1.33196,-0.2822 1.16772,0.15239 1.46316,1.0263 1.90765,1.98225 0.34407,0.73998 0.82128,1.5581 2.14455,2.50928 -0.96455,0.10779 -2.00466,-0.38416 -2.21787,-1.34616 -0.19515,0.10577 -0.35903,0.29434 -0.5065,0.53106 -0.18971,-0.50089 -0.0846,-0.92131 -0.061,-1.42856 0.0108,-0.23277 -0.0903,-0.44331 -0.33977,-0.57285 -0.16564,-0.086 -0.51484,0.0464 -0.46686,0.2771 0.004,0.0723 0.12809,0.18226 0.2318,0.16055 0.38749,-0.0597 0.30645,0.28548 0.0643,0.42231 -0.37271,0.19628 -0.84089,0.0431 -0.94381,-0.38109 -0.0798,-0.32894 0.20457,-0.64933 0.48449,-0.81194 -0.7013,-0.36552 -1.45478,0.26369 -1.37133,0.94412 0.10174,0.82957 0.88504,0.94051 1.52446,1.21082 0.37876,0.16016 -0.0275,0.4017 -0.19896,0.48463 0.50949,0.43695 0.94929,0.49786 1.5977,0.48725 0.28316,-0.005 0.32895,0.25457 -0.003,0.47519 l 2.19371,1.0191 -0.27562,0.33781 z"
   id="_157415584"
   style="fill:#fb8a0a;fill-opacity:1" /><path
   d="m 10.240131,61.758262 c -1.2884497,-2.12525 -3.6093797,-4.93949 -1.2056597,-7.12723 l 2.0608797,-0.10806 c 0.76594,0.80787 0.48383,1.66541 0.26755,2.67092 -0.1716,0.79774 -0.28408,1.73817 0.19822,3.29487 -0.83453,-0.49559 -1.36783,-1.51513 -0.95793,-2.41118 -0.21944,-0.0333 -0.46397,0.0184 -0.7242797,0.11831 0.1506797,-0.514 0.4879997,-0.78606 0.8125997,-1.17653 0.14897,-0.17919 0.19506,-0.40819 0.0744,-0.66188 -0.0804,-0.16848 -0.43883,-0.27342 -0.53965,-0.0604 -0.0409,0.0596 -0.008,0.22273 0.0881,0.26785 0.34517,0.1859 0.0724,0.41253 -0.20326,0.37565 -0.4156797,-0.0681 -0.6968697,-0.47256 -0.5231197,-0.87303 0.1345,-0.31057 0.5545697,-0.39468 0.8759697,-0.35574 -0.33921,-0.71428 -1.3196797,-0.66661 -1.6634397,-0.0735 -0.41876,0.72314 0.13919,1.28407 0.48637,1.88516 0.20563,0.35605 -0.26412,0.30369 -0.4509,0.26667 0.14305,0.65578 0.45726,0.96947 0.98096,1.35195 0.2286897,0.167 0.1088,0.40144 -0.28908,0.37723 l 1.3370797,2.51384 -0.62482,-0.27492 z"
   id="_157691368"
   style="fill:#fb8a0a;fill-opacity:1" /><path
   d="m 24.574851,15.836992 c 1.37243,-2.07197 2.92746,-5.37183 5.93166,-4.13131 0.0592,-0.85878 0.41152,-1.58038 1.53337,-1.39716 0.31978,0.0522 0.20716,0.35709 -0.0122,0.4512 -0.61245,0.26259 -0.78848,0.6913 -0.51791,1.3227 0.17279,0.42007 0.15792,0.91921 0.004,1.36155 -0.3884,1.11172 -1.30428,1.22188 -2.33101,1.4611 -0.7948,0.18515 -1.69335,0.48467 -2.89545,1.58499 0.0921,-0.96618 0.78673,-1.88345 1.77202,-1.89507 -0.0635,-0.21265 -0.21453,-0.4117 -0.41604,-0.60456 0.52914,-0.083 0.91912,0.10595 1.4108,0.23294 0.22558,0.0583 0.45239,0.002 0.63026,-0.21523 0.11814,-0.14449 0.0601,-0.51339 -0.17554,-0.51369 -0.0714,-0.0115 -0.20467,0.088 -0.20467,0.19396 -0.0209,0.39152 -0.34218,0.2415 -0.42651,-0.0235 -0.11577,-0.40502 0.13011,-0.83189 0.56636,-0.84575 0.33833,-0.0107 0.59364,0.33329 0.69547,0.64057 0.50142,-0.61154 0.0399,-1.47794 -0.64315,-1.53565 -0.83282,-0.0704 -1.1019,0.67358 -1.4975,1.24407 -0.23431,0.33788 -0.38749,-0.10924 -0.43357,-0.29404 -0.53203,0.40915 -0.68179,0.82716 -0.80418,1.46399 -0.0535,0.27812 -0.31662,0.26983 -0.4645,-0.10051 l -1.70325,2.2819 -0.0178,-0.68249 z"
   id="_155690880"
   style="fill:#fb8a0a;fill-opacity:1" /><path
   d="m 18.443301,20.211782 c 0.91162,-2.31206 1.74658,-5.86307 4.94308,-5.2743 -0.12068,-0.85233 0.0739,-1.63138 1.20939,-1.68545 0.32359,-0.0154 0.27688,0.30627 0.0818,0.44388 -0.54444,0.3842 -0.6275,0.84014 -0.23155,1.4015 0.25632,0.37495 0.34556,0.86628 0.28636,1.33112 -0.14879,1.16816 -1.02178,1.46632 -1.97633,1.9138 -0.73892,0.34635 -1.55556,0.8261 -2.50261,2.15231 -0.11077,-0.96416 0.37793,-2.0058 1.33928,-2.22204 -0.10639,-0.1948 -0.29544,-0.35811 -0.53265,-0.50484 0.50033,-0.19124 0.92105,-0.0875 1.42839,-0.0655 0.23282,0.0101 0.443,-0.0917 0.57176,-0.34157 0.0855,-0.1659 -0.048,-0.51471 -0.27856,-0.46599 -0.0722,0.004 -0.18186,0.12867 -0.1598,0.23229 0.0609,0.38731 -0.28456,0.30733 -0.42209,0.0657 -0.19747,-0.37209 -0.0457,-0.84075 0.37815,-0.94499 0.32868,-0.0808 0.64995,0.20256 0.81343,0.48199 0.36333,-0.70244 -0.26825,-1.45395 -0.94837,-1.36839 -0.82926,0.10428 -0.9378,0.88793 -1.20613,1.52819 -0.15893,0.37924 -0.40174,-0.0263 -0.48519,-0.19743 -0.43538,0.5108 -0.49493,0.95083 -0.48226,1.5992 0.006,0.28316 -0.2536,0.32973 -0.47523,-0.002 l -1.19163,2.58615 -0.15927,-0.66385 z"
   id="_155966136"
   style="fill:#fb8a0a;fill-opacity:1" /><path
   d="m 13.355021,25.766232 c 0.41099,-2.45109 0.48944,-6.09814 3.73848,-6.18681 -0.29526,-0.80856 -0.26689,-1.61112 0.83251,-1.90007 0.31337,-0.0824 0.33451,0.24203 0.17238,0.41718 -0.45269,0.489 -0.43914,0.95227 0.0649,1.419 0.32863,0.3135 0.51808,0.7755 0.5568,1.24249 0.0974,1.17355 -0.69455,1.64677 -1.53521,2.28286 -0.65078,0.49243 -1.3498,1.13155 -2.00045,2.62567 -0.30881,-0.92009 -0.0474,-2.04058 0.84803,-2.45196 -0.14454,-0.16844 -0.36345,-0.28887 -0.62596,-0.38311 0.44963,-0.29105 0.88272,-0.27702 1.38357,-0.36099 0.22979,-0.0385 0.41424,-0.18182 0.48826,-0.45296 0.0491,-0.18006 -0.15397,-0.49348 -0.36937,-0.39788 -0.0699,0.0185 -0.15112,0.16361 -0.10806,0.26044 0.14016,0.36617 -0.2144,0.35977 -0.39919,0.15195 -0.27049,-0.32289 -0.21949,-0.81286 0.17344,-1.00296 0.30469,-0.14739 0.67783,0.063 0.89583,0.30232 0.20935,-0.76261 -0.56466,-1.36642 -1.21215,-1.14132 -0.78944,0.27443 -0.73265,1.06357 -0.86202,1.74562 -0.0766,0.40397 -0.39845,0.0578 -0.51567,-0.0923 -0.31964,0.59017 -0.2864,1.03296 -0.13923,1.66449 0.0643,0.27584 -0.17949,0.37529 -0.4652,0.0971 l -0.62789,2.7774 -0.29381,-0.61622 z"
   id="_155904576"
   style="fill:#fb8a0a;fill-opacity:1" /><path
   d="m 9.5332213,32.256932 c -0.10758,-2.48301 -0.78914,-6.06664 2.3704797,-6.82886 -0.45695,-0.72954 -0.59601,-1.52043 0.41928,-2.03167 0.28939,-0.14568 0.37749,0.16717 0.25531,0.37223 -0.34113,0.57246 -0.23154,1.02274 0.35854,1.37453 0.38666,0.23825 0.66798,0.65082 0.80296,1.09953 0.33924,1.12768 -0.33702,1.75518 -1.02705,2.55221 -0.53413,0.61693 -1.08505,1.38738 -1.41079,2.98416 -0.49335,-0.83579 -0.47059,-1.98615 0.31968,-2.5747 -0.17642,-0.13468 -0.41555,-0.20699 -0.69191,-0.24457 0.37924,-0.37819 0.80585,-0.4545 1.27823,-0.64079 0.21681,-0.0855 0.3674,-0.26395 0.38341,-0.54456 0.0107,-0.18638 -0.25316,-0.45068 -0.44397,-0.31241 -0.0645,0.0327 -0.11384,0.1915 -0.0515,0.27724 0.21317,0.32903 -0.13493,0.39647 -0.35889,0.23163 -0.33175,-0.25961 -0.38372,-0.7495 -0.0389,-1.01709 0.26737,-0.20755 0.67613,-0.0793 0.93912,0.10942 0.0462,-0.78945 -0.83642,-1.21912 -1.42295,-0.86435 -0.71511,0.43257 -0.49554,1.19263 -0.48024,1.88669 0.009,0.41108 -0.3777,0.13937 -0.5236,0.017 -0.18993,0.64372 -0.0654,1.06992 0.20988,1.65707 0.12024,0.25641 -0.0975,0.40437 -0.4348497,0.19173 l -0.0367,2.84725 -0.4155,-0.54167 z"
   id="_157414648"
   style="fill:#fb8a0a;fill-opacity:1" /><path
   d="m 7.1441013,39.400172 c -0.62145,-2.40635 -2.03317,-5.76998 0.8989,-7.17249 -0.59864,-0.61859 -0.89912,-1.36331 -0.0123,-2.07443 0.25277,-0.20269 0.40402,0.085 0.32714,0.31101 -0.21466,0.63087 -0.0138,1.04853 0.63644,1.26994 0.42775,0.15265 0.78875,0.49773 1.0140597,0.90859 0.56624,1.03248 0.0353,1.78684 -0.4739597,2.70991 -0.39424,0.71454 -0.77291,1.5827 -0.75954,3.21229 -0.65635,-0.71494 -0.87324,-1.84491 -0.2226,-2.58488 -0.20058,-0.0951 -0.44953,-0.11608 -0.72765,-0.0954 0.29232,-0.44875 0.69371,-0.61211 1.11707,-0.8925 0.19427,-0.12871 0.30447,-0.33465 0.2618,-0.61241 -0.0283,-0.18449 -0.34135,-0.38819 -0.49922,-0.2133 -0.0564,0.0454 -0.0715,0.21102 0.007,0.28188 0.27698,0.27755 -0.0495,0.41591 -0.30285,0.30123 -0.37845,-0.18497 -0.53115,-0.65332 -0.24952,-0.98678 0.21839,-0.2586 0.64486,-0.21817 0.94135,-0.0882 -0.11893,-0.78181 -1.0716,-1.01857 -1.57157,-0.54961 -0.60955,0.5718 -0.23672,1.26964 -0.0775,1.94533 0.0943,0.4002 -0.34048,0.21488 -0.50861,0.12546 -0.052,0.66916 0.15848,1.06011 0.54983,1.57723 0.17089,0.22584 -0.0113,0.41581 -0.38552,0.27794 l 0.55611,2.79265 -0.51909,-0.44344 z"
   id="_157416280"
   style="fill:#fb8a0a;fill-opacity:1" /><path
   d="m 4.6387713,43.315382 c -0.37719,-1.3177 -0.2879,-2.61071 1.04173,-3.63332 -0.7142,-0.48063 -1.16294,-1.14659 -0.44331,-2.02659 0.2051,-0.25079 0.41287,-8.7e-4 0.38468,0.2362 -0.0788,0.66174 0.20444,1.02853 0.88653,1.10987 0.45015,0.0604 0.875,0.3229 1.18083,0.67793 0.71692,0.83225 0.4495,1.62638 0.16182,2.54813 l -0.58333,-0.2258 c 0.0551,-0.13239 0.0596,-0.28618 -0.005,-0.45594 -0.066,-0.17458 -0.41459,-0.30873 -0.53264,-0.10485 -0.0457,0.0561 -0.0261,0.22128 0.0657,0.27426 l -0.42625,0.27952 c -0.28676,-0.16748 -0.42779,-0.51581 -0.25659,-0.83528 0.15984,-0.29833 0.5854,-0.34744 0.90241,-0.28201 -0.27886,-0.73998 -1.25994,-0.77353 -1.65151,-0.21085 -0.46353,0.66617 0.004,1.25608 0.3025,1.86455 l -1.02787,0.78418 z"
   id="_155905296"
   style="fill:#fb8a0a;fill-opacity:1" /><path
   d="m 6.7761713,50.356002 c -0.38451,-2.45538 -1.46277,-5.94017 1.59191,-7.05101 -0.23036,-0.28961 -0.40354,-0.59711 -0.45059,-0.9029 l 1.44518,0.50401 c 0.41086,0.19387 0.7366497,0.57224 0.9209597,1.00296 0.46322,1.08274 -0.13849,1.78206 -0.7351997,2.65119 -0.46173,0.67284 -0.9228,1.5 -1.068,3.12313 -0.58399,-0.77532 -0.68968,-1.92098 0.0297,-2.59435 -0.19041,-0.11406 -0.43616,-0.15914 -0.71498,-0.16554 0.33447,-0.41819 0.7498,-0.54181 1.19851,-0.77971 0.20598,-0.10924 0.33543,-0.30347 0.32008,-0.58404 -0.0103,-0.18633 -0.30193,-0.41941 -0.47589,-0.26075 -0.0607,0.0397 -0.092,0.20291 -0.0203,0.28101 0.24864,0.30316 -0.0898,0.4095 -0.33096,0.27066 -0.35863,-0.22111 -0.46507,-0.702 -0.15244,-1.00634 0.24251,-0.23628 0.66311,-0.15463 0.94556,0.004 -0.0425,-0.78975 -0.96762,-1.11795 -1.51078,-0.69981 -0.66223,0.5097 -0.35876,1.24065 -0.26614,1.92866 0.0551,0.40735 -0.35995,0.18068 -0.51839,0.0754 -0.11687,0.66083 0.0547,1.0705 0.39393,1.62319 0.14818,0.24141 -0.0517,0.41283 -0.41064,0.23899 l 0.28202,2.83349 -0.47357,-0.49181 z"
   id="_155919536"
   style="fill:#fb8a0a;fill-opacity:1" /><path
   d="m 5.7982413,55.718372 c -0.97722,-1.77864 -1.66308,-3.72186 0.13327,-5.25475 -0.73765,-0.44371 -1.21964,-1.08598 -0.54566,-2.00137 0.19212,-0.26093 0.41226,-0.0218 0.39612,0.21633 -0.045,0.66485 0.25646,1.01678 0.94184,1.06339 0.45265,0.0375 0.89026,0.27799 1.21372,0.61706 0.81286,0.85202 0.49388,1.7176 0.23931,2.74065 -0.0924,0.37117 -0.17274,0.77414 -0.18756,1.25933 l -0.73099,-0.0208 c 0.0262,-0.12831 0.0693,-0.25549 0.13095,-0.37955 -0.21826,-0.0403 -0.46423,0.004 -0.7277,0.0951 0.16703,-0.50891 0.51286,-0.77001 0.84983,-1.14991 0.15458,-0.17436 0.20808,-0.4017 0.0954,-0.65916 -0.0749,-0.17098 -0.42976,-0.28728 -0.53734,-0.0776 -0.0427,0.0583 -0.0148,0.22229 0.0796,0.27053 0.33903,0.1969 0.0591,0.41463 -0.21518,0.36898 -0.41332,-0.0814 -0.68139,-0.49462 -0.49506,-0.88934 0.14454,-0.3061 0.56702,-0.37674 0.88697,-0.32745 -0.31614,-0.72489 -1.29761,-0.70858 -1.66006,-0.12674 -0.44191,0.70941 0.0979,1.28779 0.42568,1.89976 0.19414,0.36249 -0.27373,0.29527 -0.45918,0.25212 0.122,0.65999 0.42594,0.98367 0.93718,1.38264 l -0.77107,0.72082 z"
   id="_155691096"
   style="fill:#fb8a0a;fill-opacity:1" /><path
   d="m 59.072811,75.426852 c 1.71843,-1.50732 3.26245,-3.16993 4.62111,-4.95589 l 3.48453,3.80492 c -1.63472,2.04821 -3.48707,3.94595 -5.54383,5.65478 l -2.56181,-4.50381 z m 8.86469,2.2352 -0.0108,-3.40924 -1.81048,-1.97698 c 4.64467,-4.51056 6.89481,-11.07942 6.08726,-17.41677 l 5.26523,-0.2033 c 0.94218,8.62828 -2.68798,17.50219 -9.53118,23.00629 z m -0.57452,-2.08913 0.007,2.16863 -0.87211,-1.16755 c 0.29435,-0.32933 0.58277,-0.6631 0.86527,-1.00108 z m 8.67885,-33.35461 c -1.08519,-7.42035 -4.56082,-14.06472 -9.62055,-19.12436 -4.28485,-4.28481 -9.70611,-7.43355 -15.77271,-8.95684 l 0,0.99249 c 5.79848,1.50267 10.98136,4.53722 15.09062,8.64644 4.96457,4.96453 8.36034,11.49658 9.38119,18.78756 l -3.26399,1.22311 c 1.47746,3.25816 2.43592,6.76979 2.79332,10.40921 l -3.49383,0.13489 c 1.007,6.2253 -1.1065,12.76714 -5.69143,17.23337 l -2.08842,-2.28045 c -1.4986,2.06662 -3.24667,3.97335 -5.22629,5.67008 l 3.52049,6.18925 c 1.5963,-1.27599 3.07731,-2.66122 4.43754,-4.13916 l 1.55762,2.08521 c 6.54877,-4.82906 10.48893,-12.50871 10.87651,-20.44517 l 3.26087,-0.0266 c 0.13722,-4.51876 -0.49602,-8.94073 -1.79991,-13.11191 l 2.36992,-0.87694 c -0.63469,-10.0603 -4.9762,-19.11501 -11.67363,-25.8124 -5.36534,-5.3653 -12.24371,-9.2175399 -19.93967,-10.8644899 0.0972,0.33653 0.17273,0.68166 0.22558,1.03367 7.33663,1.6575599 13.89399,5.3749499 19.032,10.5129099 6.36963,6.36959 10.55541,14.9213 11.34016,24.43428 l -2.60878,-1.87744 0,-5e-5 -0.77751,-0.55956 -1.9291,0.72292 z m -0.42818,11.94038 c -0.34311,-3.55058 -1.24215,-6.98384 -2.62527,-10.18972 l 4.76968,-1.78733 c 2.02628,4.77877 3.11862,9.9908 3.09937,15.36216 l -3.1705,-3.46515 -2.07328,0.08 z m 4.94501,3.90086 -1.95888,0.016 -0.0567,0.54299 c 0.0442,-0.92311 0.0411,-1.84947 -0.0123,-2.77534 l 2.0279,2.21638 z m 0.58873,-13.57838 -1.31512,0.49282 c -0.21369,-0.65174 -0.44379,-1.29726 -0.68989,-1.93576 l 2.00501,1.44294 z"
   id="_158243288"
   style="fill:#fb8a0a;fill-opacity:1;fill-rule:nonzero" /><path
   d="m 60.071781,77.530052 c 2.39175,-0.67556 6.00854,-1.1508 5.74275,-4.39019 0.28491,0.07 0.56487,0.10284 0.81698,0.0711 l -1.27266,-1.38975 c -0.27584,-0.12161 -0.58684,-0.17792 -0.89307,-0.1698 -1.17719,0.031 -1.5613,0.86978 -2.10206,1.77473 -0.41862,0.70051 -0.97775,1.46501 -2.3921,2.27454 0.94824,0.20672 2.03356,-0.1752 2.34496,-1.11006 0.18317,0.12533 0.32675,0.32982 0.44901,0.58048 0.24036,-0.47861 0.17923,-0.90762 0.20813,-1.41461 0.0133,-0.23264 0.13564,-0.4316 0.39713,-0.5347 0.17362,-0.0685 0.5073,0.0993 0.43573,0.32381 -0.0108,0.0715 -0.14621,0.16805 -0.24711,0.13577 -0.37929,-0.0994 -0.3343,0.25233 -0.10762,0.41336 0.35047,0.23374 0.83198,0.12967 0.9781,-0.28163 0.11336,-0.31894 -0.13643,-0.66691 -0.39805,-0.85759 0.73528,-0.29114 1.41974,0.41248 1.26652,1.08063 -0.18677,0.81462 -0.9774,0.84417 -1.64129,1.04704 -0.39328,0.12016 -0.0141,0.40235 0.14787,0.50256 -0.55185,0.382 -0.9956,0.39722 -1.63945,0.31969 -0.28119,-0.0339 -0.3535,0.21931 -0.0459,0.47304 l -2.69245,0.92666 0.64455,0.22497 z"
   id="_156748160"
   style="fill:#fb8a0a;fill-opacity:1" /><path
   d="m 72.075271,68.689692 c 1.87735,-1.62857 4.94865,-3.59684 3.33047,-6.41563 0.84395,-0.16958 1.51398,-0.61223 1.18737,-1.70102 -0.0931,-0.31035 -0.38087,-0.15927 -0.44582,0.0704 -0.18128,0.64126 -0.58368,0.87118 -1.24477,0.68441 -0.43884,-0.11704 -0.93188,-0.0378 -1.35054,0.17261 -1.05222,0.52874 -1.04314,1.45123 -1.14773,2.50024 -0.081,0.81203 -0.26185,1.74172 -1.19767,3.07591 0.94613,-0.21616 1.76601,-1.02345 1.65024,-2.00199 0.21909,0.0356 0.43598,0.15958 0.65328,0.33447 0.014,-0.53545 -0.22383,-0.89772 -0.41328,-1.36888 -0.0869,-0.21619 -0.0608,-0.44826 0.13205,-0.65279 0.128,-0.13582 0.50133,-0.12591 0.53207,0.10774 0.0207,0.0693 -0.0609,0.21431 -0.16594,0.228 -0.38552,0.0713 -0.19524,0.37051 0.0784,0.41989 0.41656,0.0625 0.80808,-0.2365 0.76546,-0.67087 -0.0331,-0.33688 -0.40714,-0.54562 -0.72503,-0.60688 0.54168,-0.57623 1.4604,-0.23054 1.60591,0.43936 0.17738,0.81673 -0.52563,1.1797 -1.0402,1.64568 -0.30482,0.27597 0.15835,0.37012 0.34753,0.39192 -0.33696,0.58044 -0.73212,0.78295 -1.34782,0.98661 -0.26887,0.0889 -0.22664,0.3488 0.15967,0.44761 l -2.04273,1.98378 0.67903,-0.0706 z"
   id="_157414480"
   style="fill:#fb8a0a;fill-opacity:1" /><path
   d="m 67.582071,74.221772 c 2.30926,-0.91886 5.85764,-1.76487 5.25892,-4.95949 0.85272,0.11805 1.6312,-0.079 1.68172,-1.2146 0.0144,-0.32368 -0.30715,-0.27597 -0.44414,-0.0805 -0.38254,0.54566 -0.83821,0.63012 -1.40081,0.23593 -0.37573,-0.25519 -0.86732,-0.34285 -1.33195,-0.2822 -1.16772,0.15239 -1.46316,1.0263 -1.90765,1.98225 -0.34408,0.73998 -0.82129,1.5581 -2.14455,2.50928 0.96455,0.10779 2.00465,-0.38416 2.21787,-1.34616 0.19515,0.10577 0.35902,0.29434 0.5065,0.53106 0.18971,-0.50089 0.0846,-0.92131 0.0611,-1.42856 -0.0108,-0.23277 0.0903,-0.44331 0.33977,-0.57285 0.16563,-0.086 0.51484,0.0464 0.46686,0.2771 -0.004,0.0723 -0.12809,0.18226 -0.23181,0.16055 -0.38748,-0.0597 -0.30644,0.28548 -0.0643,0.42231 0.37271,0.19628 0.84089,0.0431 0.94381,-0.38109 0.0798,-0.32894 -0.20458,-0.64933 -0.48449,-0.81194 0.7013,-0.36552 1.45478,0.26369 1.37133,0.94412 -0.10174,0.82957 -0.88504,0.94051 -1.52447,1.21082 -0.37876,0.16016 0.0275,0.4017 0.19897,0.48463 -0.50949,0.43695 -0.94929,0.49786 -1.59771,0.48725 -0.28316,-0.005 -0.32894,0.25457 0.003,0.47519 l -2.19371,1.0191 0.27562,0.33781 z"
   id="_156387304"
   style="fill:#fb8a0a;fill-opacity:1" /><path
   d="m 74.403431,61.758262 c 1.28845,-2.12525 3.60938,-4.93949 1.20565,-7.12723 l -2.06087,-0.10806 c -0.76594,0.80787 -0.48384,1.66541 -0.26755,2.67092 0.17159,0.79774 0.28408,1.73817 -0.19822,3.29487 0.83453,-0.49559 1.36782,-1.51513 0.95793,-2.41118 0.21944,-0.0333 0.46397,0.0184 0.72428,0.11831 -0.15068,-0.514 -0.488,-0.78606 -0.8126,-1.17653 -0.14897,-0.17919 -0.19506,-0.40819 -0.0744,-0.66188 0.0804,-0.16848 0.43884,-0.27342 0.53966,-0.0604 0.0409,0.0596 0.008,0.22273 -0.0881,0.26785 -0.34517,0.1859 -0.0724,0.41253 0.20326,0.37565 0.41568,-0.0681 0.69687,-0.47256 0.52312,-0.87303 -0.1345,-0.31057 -0.55457,-0.39468 -0.87597,-0.35574 0.33921,-0.71428 1.31968,-0.66661 1.66344,-0.0735 0.41875,0.72314 -0.13919,1.28407 -0.48637,1.88516 -0.20563,0.35605 0.26412,0.30369 0.45089,0.26667 -0.14305,0.65578 -0.45725,0.96947 -0.98095,1.35195 -0.22869,0.167 -0.1088,0.40144 0.28908,0.37723 l -1.33708,2.51384 0.62482,-0.27492 z"
   id="_157414720"
   style="fill:#fb8a0a;fill-opacity:1" /><path
   d="m 60.068711,15.836992 c -1.37243,-2.07197 -2.92746,-5.37183 -5.93166,-4.13131 -0.0592,-0.85878 -0.41152,-1.58038 -1.53337,-1.39716 -0.31978,0.0522 -0.20717,0.35709 0.0122,0.4512 0.61245,0.26259 0.78848,0.6913 0.5179,1.3227 -0.17278,0.42007 -0.15791,0.91921 -0.003,1.36155 0.3884,1.11172 1.30428,1.22188 2.33101,1.4611 0.79479,0.18515 1.69335,0.48467 2.89545,1.58499 -0.0921,-0.96618 -0.78673,-1.88345 -1.77202,-1.89507 0.0635,-0.21265 0.21453,-0.4117 0.41603,-0.60456 -0.52913,-0.083 -0.91911,0.10595 -1.41079,0.23294 -0.22559,0.0583 -0.45239,0.002 -0.63026,-0.21523 -0.11814,-0.14449 -0.0601,-0.51339 0.17554,-0.51369 0.0714,-0.0115 0.20466,0.088 0.20466,0.19396 0.0209,0.39152 0.34219,0.2415 0.42652,-0.0235 0.11577,-0.40502 -0.13011,-0.83189 -0.56636,-0.84575 -0.33833,-0.0107 -0.59364,0.33329 -0.69547,0.64057 -0.50142,-0.61154 -0.0399,-1.47794 0.64315,-1.53565 0.83282,-0.0704 1.1019,0.67358 1.4975,1.24407 0.2343,0.33788 0.38748,-0.10924 0.43357,-0.29404 0.53203,0.40915 0.68179,0.82716 0.80418,1.46399 0.0535,0.27812 0.31662,0.26983 0.4645,-0.10051 l 1.70325,2.2819 0.0178,-0.68249 z"
   id="_155974336"
   style="fill:#fb8a0a;fill-opacity:1" /><path
   d="m 66.200261,20.211782 c -0.91162,-2.31206 -1.74658,-5.86307 -4.94308,-5.2743 0.12068,-0.85233 -0.0739,-1.63138 -1.20939,-1.68545 -0.32359,-0.0154 -0.27689,0.30627 -0.0818,0.44388 0.54444,0.3842 0.6275,0.84014 0.23155,1.4015 -0.25632,0.37495 -0.34556,0.86628 -0.28636,1.33112 0.14879,1.16816 1.02178,1.46632 1.97633,1.9138 0.73892,0.34635 1.55556,0.8261 2.50261,2.15231 0.11077,-0.96416 -0.37793,-2.0058 -1.33928,-2.22204 0.10639,-0.1948 0.29544,-0.35811 0.53264,-0.50484 -0.50032,-0.19124 -0.92104,-0.0875 -1.42838,-0.0655 -0.23282,0.0101 -0.44301,-0.0917 -0.57176,-0.34157 -0.0855,-0.1659 0.048,-0.51471 0.27856,-0.46599 0.0722,0.004 0.18186,0.12867 0.1598,0.23229 -0.0609,0.38731 0.28456,0.30733 0.42208,0.0657 0.19747,-0.37209 0.0457,-0.84075 -0.37814,-0.94499 -0.32868,-0.0808 -0.64995,0.20256 -0.81343,0.48199 -0.36333,-0.70244 0.26825,-1.45395 0.94836,-1.36839 0.82927,0.10428 0.9378,0.88793 1.20614,1.52819 0.15893,0.37924 0.40174,-0.0263 0.48519,-0.19743 0.43538,0.5108 0.49493,0.95083 0.48226,1.5992 -0.006,0.28316 0.2536,0.32973 0.47523,-0.002 l 1.19162,2.58615 0.15928,-0.66385 z"
   id="_155919872"
   style="fill:#fb8a0a;fill-opacity:1" /><path
   d="m 71.288541,25.766232 c -0.41099,-2.45109 -0.48944,-6.09814 -3.73848,-6.18681 0.29526,-0.80856 0.26689,-1.61112 -0.83251,-1.90007 -0.31337,-0.0824 -0.33451,0.24203 -0.17239,0.41718 0.4527,0.489 0.43915,0.95227 -0.0649,1.419 -0.32863,0.3135 -0.51808,0.7755 -0.5568,1.24249 -0.0974,1.17355 0.69454,1.64677 1.53521,2.28286 0.65078,0.49243 1.3498,1.13155 2.00045,2.62567 0.30881,-0.92009 0.0474,-2.04058 -0.84803,-2.45196 0.14454,-0.16844 0.36345,-0.28887 0.62596,-0.38311 -0.44963,-0.29105 -0.88272,-0.27702 -1.38357,-0.36099 -0.22979,-0.0385 -0.41424,-0.18182 -0.48826,-0.45296 -0.0491,-0.18006 0.15397,-0.49348 0.36937,-0.39788 0.0699,0.0185 0.15112,0.16361 0.10806,0.26044 -0.14016,0.36617 0.2144,0.35977 0.39919,0.15195 0.27049,-0.32289 0.21949,-0.81286 -0.17344,-1.00296 -0.30469,-0.14739 -0.67783,0.063 -0.89583,0.30232 -0.20935,-0.76261 0.56465,-1.36642 1.21215,-1.14132 0.78944,0.27443 0.73265,1.06357 0.86202,1.74562 0.0766,0.40397 0.39845,0.0578 0.51567,-0.0923 0.31964,0.59017 0.2864,1.03296 0.13923,1.66449 -0.0643,0.27584 0.17949,0.37529 0.46519,0.0971 l 0.62789,2.7774 0.29382,-0.61622 z"
   id="_157690488"
   style="fill:#fb8a0a;fill-opacity:1" /><path
   d="m 75.110341,32.256932 c 0.10757,-2.48301 0.78914,-6.06664 -2.37048,-6.82886 0.45695,-0.72954 0.59601,-1.52043 -0.41928,-2.03167 -0.28939,-0.14568 -0.37749,0.16717 -0.25531,0.37223 0.34113,0.57246 0.23154,1.02274 -0.35855,1.37453 -0.38665,0.23825 -0.66797,0.65082 -0.80295,1.09953 -0.33925,1.12768 0.33701,1.75518 1.02704,2.55221 0.53413,0.61693 1.08506,1.38738 1.4108,2.98416 0.49335,-0.83579 0.47059,-1.98615 -0.31969,-2.5747 0.17643,-0.13468 0.41556,-0.20699 0.69192,-0.24457 -0.37924,-0.37819 -0.80585,-0.4545 -1.27823,-0.64079 -0.21681,-0.0855 -0.3674,-0.26395 -0.38341,-0.54456 -0.0107,-0.18638 0.25316,-0.45068 0.44397,-0.31241 0.0645,0.0327 0.11384,0.1915 0.0515,0.27724 -0.21317,0.32903 0.13493,0.39647 0.35889,0.23163 0.33175,-0.25961 0.38372,-0.7495 0.0389,-1.01709 -0.26737,-0.20755 -0.67613,-0.0793 -0.93912,0.10942 -0.0462,-0.78945 0.83641,-1.21912 1.42295,-0.86435 0.71511,0.43257 0.49554,1.19263 0.48024,1.88669 -0.009,0.41108 0.3777,0.13937 0.5236,0.017 0.18993,0.64372 0.0654,1.06992 -0.20988,1.65707 -0.12024,0.25641 0.0975,0.40437 0.43485,0.19173 l 0.0367,2.84725 0.41551,-0.54167 z"
   id="_155965992"
   style="fill:#fb8a0a;fill-opacity:1" /><path
   d="m 77.499461,39.400172 c 0.62145,-2.40635 2.03317,-5.76998 -0.8989,-7.17249 0.59864,-0.61859 0.89912,-1.36331 0.0123,-2.07443 -0.25277,-0.20269 -0.40402,0.085 -0.32715,0.31101 0.21467,0.63087 0.0139,1.04853 -0.63644,1.26994 -0.42774,0.15265 -0.78874,0.49773 -1.01406,0.90859 -0.56623,1.03248 -0.0353,1.78684 0.47397,2.70991 0.39424,0.71454 0.77291,1.5827 0.75953,3.21229 0.65636,-0.71494 0.87325,-1.84491 0.2226,-2.58488 0.20059,-0.0951 0.44954,-0.11608 0.72766,-0.0954 -0.29233,-0.44875 -0.69371,-0.61211 -1.11707,-0.8925 -0.19427,-0.12871 -0.30447,-0.33465 -0.26181,-0.61241 0.0283,-0.18449 0.34136,-0.38819 0.49923,-0.2133 0.0564,0.0454 0.0715,0.21102 -0.007,0.28188 -0.27698,0.27755 0.0495,0.41591 0.30285,0.30123 0.37845,-0.18497 0.53115,-0.65332 0.24952,-0.98678 -0.21839,-0.2586 -0.64486,-0.21817 -0.94135,-0.0882 0.11893,-0.78181 1.07159,-1.01857 1.57156,-0.54961 0.60956,0.5718 0.23672,1.26964 0.0775,1.94533 -0.0943,0.4002 0.34048,0.21488 0.50861,0.12546 0.052,0.66916 -0.15848,1.06011 -0.54983,1.57723 -0.17089,0.22584 0.0113,0.41581 0.38551,0.27794 l -0.5561,2.79265 0.51909,-0.44344 z"
   id="_155690664"
   style="fill:#fb8a0a;fill-opacity:1" /><path
   d="m 80.004791,43.315382 c 0.37718,-1.3177 0.2879,-2.61071 -1.04173,-3.63332 0.71419,-0.48063 1.16294,-1.14659 0.44331,-2.02659 -0.2051,-0.25079 -0.41287,-8.7e-4 -0.38468,0.2362 0.0788,0.66174 -0.20444,1.02853 -0.88653,1.10987 -0.45016,0.0604 -0.875,0.3229 -1.18084,0.67793 -0.71691,0.83225 -0.44949,1.62638 -0.16181,2.54813 l 0.58333,-0.2258 c -0.0551,-0.13239 -0.0596,-0.28618 0.005,-0.45594 0.066,-0.17458 0.41459,-0.30873 0.53264,-0.10485 0.0457,0.0561 0.0261,0.22128 -0.0657,0.27426 l 0.42625,0.27952 c 0.28676,-0.16748 0.42779,-0.51581 0.25659,-0.83528 -0.15985,-0.29833 -0.5854,-0.34744 -0.90241,-0.28201 0.27886,-0.73998 1.25994,-0.77353 1.65151,-0.21085 0.46353,0.66617 -0.004,1.25608 -0.3025,1.86455 l 1.02787,0.78418 z"
   id="_155965848"
   style="fill:#fb8a0a;fill-opacity:1" /><path
   d="m 77.867391,50.356002 c 0.3845,-2.45538 1.46277,-5.94017 -1.59191,-7.05101 0.23036,-0.28961 0.40353,-0.59711 0.45059,-0.9029 l -1.44518,0.50401 c -0.41086,0.19387 -0.73665,0.57224 -0.92096,1.00296 -0.46322,1.08274 0.13849,1.78206 0.7352,2.65119 0.46173,0.67284 0.9228,1.5 1.068,3.12313 0.58399,-0.77532 0.68967,-1.92098 -0.0297,-2.59435 0.19041,-0.11406 0.43616,-0.15914 0.71498,-0.16554 -0.33447,-0.41819 -0.7498,-0.54181 -1.19851,-0.77971 -0.20598,-0.10924 -0.33543,-0.30347 -0.32008,-0.58404 0.0103,-0.18633 0.30193,-0.41941 0.47589,-0.26075 0.0607,0.0397 0.092,0.20291 0.0203,0.28101 -0.24865,0.30316 0.0898,0.4095 0.33096,0.27066 0.35863,-0.22111 0.46506,-0.702 0.15244,-1.00634 -0.24251,-0.23628 -0.66311,-0.15463 -0.94557,0.004 0.0425,-0.78975 0.96762,-1.11795 1.51079,-0.69981 0.66223,0.5097 0.35876,1.24065 0.26614,1.92866 -0.0551,0.40735 0.35995,0.18068 0.51839,0.0754 0.11687,0.66083 -0.0547,1.0705 -0.39393,1.62319 -0.14818,0.24141 0.0517,0.41283 0.41064,0.23899 l -0.28202,2.83349 0.47357,-0.49181 z"
   id="_156748184"
   style="fill:#fb8a0a;fill-opacity:1" /><path
   d="m 78.845321,55.718372 c 0.97722,-1.77864 1.66308,-3.72186 -0.13327,-5.25475 0.73765,-0.44371 1.21964,-1.08598 0.54566,-2.00137 -0.19212,-0.26093 -0.41226,-0.0218 -0.39613,0.21633 0.045,0.66485 -0.25645,1.01678 -0.94183,1.06339 -0.45265,0.0375 -0.89026,0.27799 -1.21372,0.61706 -0.81286,0.85202 -0.49388,1.7176 -0.23931,2.74065 0.0924,0.37117 0.17274,0.77414 0.18756,1.25933 l 0.73099,-0.0208 c -0.0262,-0.12831 -0.0693,-0.25549 -0.13095,-0.37955 0.21826,-0.0403 0.46423,0.004 0.7277,0.0951 -0.16703,-0.50891 -0.51286,-0.77001 -0.84983,-1.14991 -0.15458,-0.17436 -0.20808,-0.4017 -0.0954,-0.65916 0.0749,-0.17098 0.42976,-0.28728 0.53733,-0.0776 0.0428,0.0583 0.0148,0.22229 -0.0796,0.27053 -0.33902,0.1969 -0.0591,0.41463 0.21519,0.36898 0.41332,-0.0814 0.68139,-0.49462 0.49506,-0.88934 -0.14454,-0.3061 -0.56702,-0.37674 -0.88697,-0.32745 0.31613,-0.72489 1.29761,-0.70858 1.66006,-0.12674 0.44191,0.70941 -0.0979,1.28779 -0.42569,1.89976 -0.19413,0.36249 0.27374,0.29527 0.45919,0.25212 -0.122,0.65999 -0.42594,0.98367 -0.93718,1.38264 l 0.77107,0.72082 z"
   id="_157416064"
   style="fill:#fb8a0a;fill-opacity:1" /><path
   d="m 25.570751,75.426852 c -1.71843,-1.50732 -3.26245,-3.16993 -4.62111,-4.95589 l -3.48453,3.80492 c 1.63471,2.04821 3.48707,3.94595 5.54383,5.65478 l 2.56181,-4.50381 z m -8.86469,2.2352 0.0108,-3.40924 1.81048,-1.97698 c -4.64467,-4.51056 -6.89482,-11.07942 -6.08726,-17.41677 l -5.2652297,-0.2033 c -0.94218,8.62828 2.68798,17.50219 9.5311797,23.00629 z m 0.57452,-2.08913 -0.007,2.16863 0.8721,-1.16755 c -0.29434,-0.32933 -0.58276,-0.6631 -0.86526,-1.00108 z M 8.6017313,42.218312 c 1.08519,-7.42035 4.5608197,-14.06472 9.6205497,-19.12436 4.28485,-4.28481 9.70611,-7.43355 15.77271,-8.95684 l 0,0.99249 c -5.79849,1.50267 -10.98136,4.53722 -15.09062,8.64644 -4.96457,4.96453 -8.36034,11.49658 -9.3811997,18.78756 l 3.2639897,1.22311 c -1.47745,3.25816 -2.43591,6.76979 -2.7933097,10.40921 l 3.4938197,0.13489 c -1.007,6.2253 1.10651,12.76714 5.69144,17.23337 l 2.08842,-2.28045 c 1.49859,2.06662 3.24667,3.97335 5.22629,5.67008 l -3.52049,6.18925 c -1.5963,-1.27599 -3.07731,-2.66122 -4.43754,-4.13916 l -1.55762,2.08521 C 10.429401,74.260052 6.4892413,66.580402 6.1016613,58.643942 l -3.26087,-0.0266 c -0.13722,-4.51876 0.49602,-8.94073 1.79991,-13.11191 l -2.36992,-0.87694 c 0.63469,-10.0603 4.9762,-19.11501 11.6736197,-25.8124 5.36535,-5.3653 12.24372,-9.2175399 19.93968,-10.8644899 -0.0972,0.33653 -0.17274,0.68166 -0.22558,1.03367 -7.33663,1.6575599 -13.89399,5.3749499 -19.032,10.5129099 -6.3696297,6.36959 -10.5554097,14.9213 -11.3401697,24.43428 l 2.60878,-1.87744 0,-5e-5 0.77752,-0.55956 1.9291,0.72292 z m 0.42818,11.94038 c 0.34311,-3.55058 1.2421397,-6.98384 2.6252697,-10.18972 l -4.7696897,-1.78733 c -2.02627,4.77877 -3.11861,9.9908 -3.09936,15.36216 l 3.17049,-3.46515 2.07329,0.08 z m -4.94501,3.90086 1.95888,0.016 0.0567,0.54299 c -0.0442,-0.92311 -0.0411,-1.84947 0.0123,-2.77534 l -2.0279,2.21638 z m -0.58873,-13.57838 1.31511,0.49282 c 0.2137,-0.65174 0.4438,-1.29726 0.6899,-1.93576 l -2.00501,1.44294 z"
   id="_155919968"
   style="fill:#fb8a0a;fill-opacity:1;fill-rule:nonzero" /><circle
   cx="420.94601"
   cy="577.48297"
   r="24.309999"
   transform="matrix(0.43853152,0,0,0.43853152,-142.27631,-215.85938)"
   id="_155691000"
   style="fill:#ffffff" /><circle
   cx="420.94601"
   cy="576.50098"
   r="21.645201"
   transform="matrix(0.43853152,0,0,0.43853152,-142.27631,-215.85938)"
   id="_155974864"
   style="fill:#fb8a0a;fill-opacity:1" /><polygon
   points="421.254,565.015 443.296,587.152 454.506,577.544 489.505,612.272 351.159,612.272 387.247,577.073 397.515,588.189 "
   transform="matrix(0.43853152,0,0,0.43853152,-142.27631,-215.85938)"
   id="_155965560"
   style="fill:#0067bc;fill-opacity:1" /><path
   d="m 67.258441,52.641192 -10.42587,-6.71966 -0.86751,-5.82466 2.06549,0.90881 -0.99143,-3.59394 15.34812,15.22945 -5.1288,0 z m -24.80164,-20.72364 9.66647,9.70777 1.66251,5.13525 -11.57591,-5.89518 -0.77971,-6.34906 2.0885,1.7265 -1.06186,-4.32528 z m -14.91279,5.28764 4.50276,4.87454 -0.38047,4.39527 -2.9076,-1.55438 -2.10298,-5.02886 2.04812,0.8412 -1.15983,-3.52777 z"
   id="_156388144"
   style="fill:#001268;fill-opacity:1" /><path
   d="m 69.523891,52.707852 c -0.0145,0.69196 -0.0546,1.37743 -0.11985,2.05575 l -8.88719,4.71925 -0.55273,2.49928 -1.03335,0.24032 -2.11478,8.33894 -2.50441,4.17929 -11.5992,3.51737 -12.38058,-3.51737 -2.50441,-4.17929 -2.11477,-8.33894 -1.03336,-0.24032 -0.55272,-2.49928 -8.8861,-4.71868 c -0.0599,-0.62294 -0.10034,-1.25153 -0.11748,-1.886 l 13.14472,-9.18539 3.11313,1.95826 10.69513,-5.87479 11.29767,5.87479 3.11313,-1.50635 13.03715,8.56316 z"
   id="_157575232"
   style="fill:#f10102;fill-opacity:1" /><path
   d="m 44.788521,69.619382 c -0.0606,-0.0607 -0.0373,-0.6114 0.0374,-0.87277 0.0887,-0.32201 0.14932,-0.90543 0.10735,-1.02208 -0.056,-0.14937 -0.36406,-0.1167 -0.63473,0.07 -0.22404,0.14936 -0.25202,0.15401 -0.43405,0.098 -0.25203,-0.084 -0.34539,-0.042 -0.36403,0.16335 l -0.0187,0.17269 -0.37337,0.014 c -0.47137,0.0233 -0.47607,0 -0.10266,-0.6114 l 0.27066,-0.4387 0.35938,-0.0933 c 0.5554,-0.14472 0.86807,-0.24273 1.0641,-0.3407 0.40139,-0.18673 1.02213,-0.73743 1.27415,-1.11545 0.0793,-0.12134 0.0887,-0.21935 0.0607,-0.77475 -0.042,-0.80743 -0.14002,-1.10146 -0.57404,-1.68949 -0.18668,-0.24268 -0.41073,-0.59272 -0.4994,-0.77475 -0.0933,-0.17734 -0.20067,-0.3407 -0.23803,-0.35469 -0.042,-0.014 -0.14932,0.009 -0.24269,0.0513 -0.0933,0.042 -0.32201,0.13069 -0.50404,0.19603 -0.18669,0.0607 -0.46669,0.1587 -0.62539,0.2147 -0.15402,0.056 -0.35469,0.12134 -0.43871,0.14467 -0.084,0.028 -0.2847,0.084 -0.44336,0.13069 -1.32081,0.38735 -1.91353,0.48071 -2.56225,0.39204 -0.26605,-0.0374 -0.51339,-0.0513 -0.54141,-0.0327 -0.0327,0.0187 -0.056,0.10735 -0.0607,0.20067 0,0.29404 -0.16335,0.49471 -0.83544,1.03143 -0.56005,0.45274 -1.16211,1.07344 -1.4608,1.5028 l -0.20067,0.28939 0.112,0.29404 c 0.2287,0.61135 0.4527,0.90074 0.93811,1.19478 0.168,0.10266 0.34534,0.26136 0.40604,0.36402 0.15401,0.25667 0.392,0.38736 0.7187,0.38736 0.30338,0 0.28939,-0.014 0.34539,0.48071 0.0233,0.19138 0.014,0.25672 -0.0467,0.28005 -0.13537,0.0513 -0.30337,-0.0233 -0.58342,-0.26137 -0.20532,-0.17734 -0.34534,-0.24737 -0.56939,-0.29403 -0.35938,-0.0793 -0.36867,-0.0887 -1.19943,-1.0081 -0.98946,-1.09212 -0.95678,-1.0501 -0.91942,-1.29279 0.028,-0.17734 0.17269,-0.68608 0.40139,-1.40479 0.20532,-0.64872 0.34534,-2.25423 0.19598,-2.25423 -0.028,0 -0.24269,0.0887 -0.48068,0.20067 -0.40139,0.19603 -0.45274,0.20537 -1.04546,0.2287 -0.56939,0.0233 -0.65341,0.0374 -1.01274,0.19602 -0.54141,0.24738 -1.04546,0.53672 -1.23679,0.71406 -0.13069,0.12604 -0.16336,0.19138 -0.16336,0.37806 0,0.3967 0.16801,1.12944 0.34535,1.53083 0.0374,0.0887 0.07,0.17734 0.07,0.19598 0,0.0934 0.26601,0.40139 0.5087,0.59276 0.24268,0.19133 0.2707,0.23799 0.2707,0.41068 0,0.23335 0.0747,0.32202 0.26137,0.32202 0.112,0 0.15401,0.042 0.25202,0.28469 0.0653,0.15402 0.10266,0.30807 0.084,0.33605 -0.0373,0.0607 -0.64872,0.07 -0.72805,0.014 -0.028,-0.0233 -0.13068,-0.14467 -0.22869,-0.27066 -0.098,-0.13068 -0.32671,-0.3874 -0.5087,-0.57408 -0.31737,-0.32671 -0.33605,-0.35938 -0.45739,-0.83076 -0.24737,-0.97073 -0.30802,-1.13873 -0.70472,-2.00685 -0.21006,-0.45734 -0.19602,-0.63938 0.056,-0.88206 0.10731,-0.10735 0.28935,-0.23804 0.40135,-0.29404 0.10735,-0.056 0.29403,-0.168 0.41537,-0.24737 0.12134,-0.0793 0.23335,-0.14467 0.24738,-0.14467 0.0186,0 0.20067,-0.12599 0.40604,-0.27536 0.42471,-0.31272 1.2788,-1.16676 1.58682,-1.58213 0.2287,-0.30338 0.21935,-0.22405 0.0793,-1.23214 -0.10735,-0.77476 -0.0934,-1.54947 0.028,-1.82482 0.0933,-0.20537 0.52269,-0.6674 0.94276,-1.02213 l 0.18199,-0.15401 0.0747,-1.3488 c 0.0934,-1.6708 0.0934,-2.71157 0.009,-2.86093 -0.056,-0.10266 -0.1027,-0.10735 -0.62074,-0.10266 -0.34534,0.005 -0.60671,0.0373 -0.68139,0.0793 -0.0653,0.0373 -0.35938,0.084 -0.64872,0.10266 -0.56939,0.042 -0.70007,0.0887 -0.83075,0.28939 -0.0793,0.11665 -0.12134,0.13068 -0.41073,0.13068 -0.55536,0 -0.75607,-0.18668 -0.77471,-0.7281 l -0.014,-0.33604 0.31736,-0.38736 c 0.27071,-0.32666 0.38271,-0.42002 0.72809,-0.59272 0.40139,-0.20067 0.57404,-0.35468 1.26477,-1.09676 0.24738,-0.27536 0.69073,-0.61136 1.0081,-0.77471 0.0934,-0.0467 0.10735,-0.11205 0.12134,-0.66276 0.009,-0.43401 0.028,-0.6067 0.0747,-0.6067 0.0374,0.005 0.18204,0.18199 0.32671,0.40603 l 0.26601,0.3967 0.25203,-0.005 c 0.14002,0 0.42007,-0.028 0.62074,-0.0607 0.58807,-0.098 1.66151,-0.0747 1.94151,0.0373 0.23803,0.098 0.24268,0.11204 0.20071,0.39204 -0.014,0.0934 0.0186,0.10736 0.29869,0.13069 0.17269,0.014 0.37336,0.0653 0.45269,0.11669 0.13069,0.0887 0.13538,0.10266 0.0607,0.20536 -0.0934,0.13998 -0.10271,0.29869 -0.014,0.30803 0.0374,0 0.14937,0.009 0.24738,0.009 0.19137,0.009 0.19602,0.014 0.12603,0.30802 -0.0327,0.12599 -0.0187,0.13998 0.10266,0.13998 0.1727,0 0.1727,0.10271 0.005,0.25672 -0.16335,0.15401 -0.12599,0.21001 0.14937,0.21001 0.40138,0 0.46203,0.21471 0.11669,0.42003 -0.24738,0.14936 -0.32206,0.32201 -0.24273,0.53672 0.042,0.10735 0.0887,0.13068 0.22405,0.13068 0.0933,0 0.24737,0.0514 0.34069,0.10735 0.1727,0.10731 0.18204,0.20532 0.014,0.20532 -0.0933,0 -0.21466,0.0934 -0.21466,0.16805 0,0.0233 0.084,0.042 0.18199,0.042 0.098,0 0.28939,0.056 0.42007,0.12599 0.13998,0.0747 0.33136,0.13068 0.44336,0.13068 0.24268,0 0.28469,0.056 0.13537,0.19602 -0.1587,0.14467 -0.31736,0.18669 -0.72344,0.19133 -0.30803,0 -0.35934,0.0187 -0.50405,0.15402 -0.30803,0.29403 -0.14467,0.70476 0.28469,0.70476 0.24738,0 0.5554,0.15401 0.73744,0.36867 0.15866,0.19138 0.49006,0.36407 0.76541,0.40604 0.34534,0.0467 0.28934,0.11669 -0.31272,0.34539 -0.46668,0.17734 -0.6674,0.33604 -0.80742,0.62074 -0.13998,0.28934 -0.10731,0.42467 0.1587,0.71406 0.40604,0.43871 0.87742,0.59272 1.53083,0.49936 0.49935,-0.07 0.82141,-0.14932 1.81548,-0.4527 1.50284,-0.45739 2.46893,-0.58338 3.0663,-0.40139 0.62539,0.19138 1.28814,0.57873 1.67549,0.98012 l 0.17734,0.18668 0.55541,0 c 0.53202,0 0.56469,-0.009 0.65806,-0.12603 0.0653,-0.0887 0.112,-0.25203 0.13533,-0.5087 0.0467,-0.53672 0.1587,-0.91477 0.31736,-1.07808 0.0747,-0.0794 0.26601,-0.21006 0.42937,-0.28939 0.36407,-0.18199 0.92412,-0.224 1.6755,-0.12599 0.73743,0.098 0.97077,-0.014 1.14811,-0.55075 0.084,-0.25667 0.23804,-0.28935 0.36403,-0.0793 0.0514,0.084 0.0887,0.19602 0.0887,0.25202 0,0.14467 0.14936,0.32671 0.27071,0.32671 0.098,0 0.30337,0.18203 0.52273,0.45739 0.084,0.10735 0.12134,0.11665 0.39669,0.084 0.28939,-0.0327 0.30803,-0.028 0.40139,0.10736 0.19602,0.28938 0.33135,0.40139 0.44805,0.37336 0.46668,-0.10735 0.43401,-0.112 0.4947,0.07 0.1167,0.336 0.0187,0.68604 -0.21935,0.74204 -0.0653,0.0187 -0.26601,0.19602 -0.4434,0.39204 -0.35003,0.39205 -0.55071,0.52273 -0.80738,0.52273 -0.18668,0 -0.48072,-0.0887 -0.59741,-0.18203 -0.18668,-0.14932 -0.25202,-0.13068 -0.35468,0.1027 -0.13538,0.30333 -0.29404,0.40604 -0.52738,0.336 -0.25203,-0.07 -0.32671,-0.028 -0.48541,0.26137 -0.168,0.30802 -0.28001,0.37806 -0.52269,0.33605 -0.13068,-0.028 -0.28005,0.005 -0.59741,0.13533 -0.31737,0.12603 -0.43406,0.15401 -0.48072,0.10735 -0.0467,-0.0467 -0.028,-0.084 0.07,-0.14936 0.28005,-0.19603 0.50409,-0.43402 0.59276,-0.63938 0.0887,-0.19603 0.0887,-0.23335 0.0233,-0.42937 -0.10735,-0.30802 -0.37336,-0.44805 -0.86342,-0.44805 -0.43406,0 -0.62539,0.07 -1.05945,0.3967 -0.30802,0.23334 -1.08278,1.03612 -1.08278,1.12479 0,0.028 -0.0327,0.0887 -0.07,0.13068 -0.20067,0.22869 -0.90539,1.64748 -1.13878,2.28685 -0.35003,0.96144 -0.37336,1.06415 -0.37336,1.81553 0,0.71406 0.009,0.77006 0.29403,1.71281 0.0887,0.29404 0.0934,0.37341 0.042,0.58807 -0.0373,0.13068 -0.084,0.25672 -0.10736,0.27071 -0.028,0.014 -0.0467,0.084 -0.0467,0.14932 0,0.12603 -0.26136,0.39204 -0.38735,0.39204 -0.042,0 -0.13538,0.0327 -0.21936,0.0747 -0.18203,0.098 -1.15746,0.54606 -1.18548,0.54606 -0.009,0 -0.21466,0.0933 -0.44804,0.21001 -0.238,0.11669 -0.63004,0.29403 -0.87273,0.39669 -0.24268,0.10271 -0.48071,0.22405 -0.52737,0.26137 -0.21471,0.18668 -0.3314,0.97543 -0.1727,1.18544 0.14002,0.18668 0.0933,0.3267 -0.24268,0.70007 -0.23216,0.25505 -0.31535,0.34276 -0.36525,0.35004 l -0.0133,0 c -0.0149,-0.002 -0.0273,-0.0128 -0.0415,-0.028 z m 2.86098,-3.74769 c 0.0467,-0.028 0.19598,-0.098 0.33135,-0.16336 0.13069,-0.0607 0.30803,-0.18203 0.38736,-0.26605 0.13068,-0.13533 0.14467,-0.18669 0.14467,-0.49936 0,-0.41538 -0.0327,-0.46673 -0.43402,-0.68608 -0.30337,-0.16335 -0.57873,-0.46669 -0.78874,-0.86807 -0.14002,-0.27536 -0.26136,-0.26602 -0.32206,0.0187 -0.028,0.112 -0.0513,0.55535 -0.056,0.98476 -0.005,0.63469 0.009,0.84005 0.0934,1.11541 0.13068,0.4434 0.16335,0.48072 0.3827,0.4387 0.098,-0.0186 0.21467,-0.0513 0.26137,-0.0746 z"
   id="_156387424"
   style="fill:#ffffff" /><path
   d="m 54.108191,74.684852 c -3.08542,2.88589 -7.22963,4.65366 -11.78659,4.65366 -4.56134,0 -8.70923,-1.77123 -11.79553,-4.66208 0.0804,0.006 0.16156,0.009 0.24352,0.009 1.31463,0 2.44034,-0.80904 2.90729,-1.95607 0.46694,1.14703 1.59292,1.95607 2.90742,1.95607 1.31458,0 2.44038,-0.80904 2.90733,-1.95607 0.46695,1.14703 1.59283,1.95607 2.90742,1.95607 1.31463,0 2.44034,-0.80896 2.90733,-1.95602 0.46695,1.14706 1.59284,1.95602 2.90742,1.95602 1.31459,0 2.44034,-0.80896 2.90729,-1.95598 0.46695,1.14702 1.59283,1.95598 2.90738,1.95598 0.0267,0 0.0532,-3.5e-4 0.0797,-8.7e-4 z"
   id="_157691032"
   style="fill:#ffffff" /><path
   d="m 53.732371,75.026472 c -0.42283,0.37293 -0.76616,0.72529 -1.22421,1.05594 -0.42967,0.13081 -0.66446,0.20155 -1.45579,0.20155 -0.79133,0 -2.1299,-0.38911 -2.93027,-1.03787 -0.80036,0.64876 -1.81973,1.03787 -2.93004,1.03787 -1.11032,0 -2.12969,-0.38911 -2.93005,-1.03787 -0.80037,0.64876 -1.81995,1.03787 -2.93027,1.03787 -1.11032,0 -2.12968,-0.38911 -2.93005,-1.03787 -0.80036,0.64876 -2.17476,1.03787 -2.93027,1.03787 -0.7555,0 -0.93622,-0.0508 -1.3073,-0.14599 -0.50944,-0.3635 -0.85176,-0.75366 -1.31797,-1.16899 1.0199,-0.22076 1.85499,-0.93745 2.24068,-1.8849 0.46695,1.14703 1.59292,1.95607 2.90742,1.95607 1.31459,0 2.44039,-0.80904 2.90733,-1.95607 0.46695,1.14703 1.59284,1.95607 2.90742,1.95607 1.31463,0 2.44034,-0.80896 2.90734,-1.95602 0.46695,1.14706 1.59283,1.95602 2.90742,1.95602 1.31458,0 2.44034,-0.80896 2.90729,-1.95598 0.46694,1.14702 1.59283,1.95598 2.90737,1.95598 0.0992,0 0.19712,-0.005 0.29395,-0.0137 z"
   id="_50232672"
   style="fill:#001268;fill-opacity:1" /><path
   d="m 52.342661,76.132012 c -2.82537,2.01865 -6.28468,3.20676 -10.02106,3.20676 -3.69783,0 -7.12398,-1.16408 -9.93326,-3.14484 0.25347,0.059 0.49278,0.09 1.08308,0.09 0.75551,0 2.12991,-0.38911 2.93027,-1.03787 0.80037,0.64876 1.81973,1.03787 2.93005,1.03787 1.11032,0 2.1299,-0.38911 2.93027,-1.03787 0.80036,0.64876 1.81973,1.03787 2.93005,1.03787 1.11031,0 2.12968,-0.38911 2.93004,-1.03787 0.80037,0.64876 2.13894,1.03787 2.93027,1.03787 0.68437,0 0.9524,-0.053 1.29029,-0.15195 z"
   id="_50232624"
   style="fill:#0067bc;fill-opacity:1" /><path
   d="m 50.711331,77.163872 c -2.48393,1.38454 -5.34434,2.17459 -8.38938,2.17459 -3.08182,0 -5.97464,-0.80909 -8.47931,-2.22493 1.06708,-0.19313 1.94629,-0.926 2.34509,-1.90559 0.46695,1.14702 1.59284,1.95606 2.90742,1.95606 1.31463,0 2.44034,-0.80895 2.90733,-1.95602 0.46695,1.14707 1.59284,1.95602 2.90742,1.95602 1.31459,0 2.44034,-0.80895 2.90729,-1.95598 0.46559,1.14369 1.37844,1.95112 2.89414,1.95585 z"
   id="_155965920"
   style="fill:#ffffff" /><path
   d="m 49.402311,77.822992 c -2.16069,0.97345 -4.55744,1.51547 -7.08071,1.51547 -2.64197,0 -5.14494,-0.59482 -7.38381,-1.65642 0.59526,-0.34749 1.0658,-0.88535 1.32826,-1.53003 0.46695,1.14702 1.59284,1.95607 2.90742,1.95607 1.31463,0 2.44034,-0.80896 2.90734,-1.95603 0.46694,1.14707 1.59283,1.95603 2.90742,1.95603 1.31458,0 2.44034,-0.80896 2.90728,-1.95599 0.30114,0.73976 0.78932,1.33866 1.5068,1.6709 z"
   id="_157574080"
   style="fill:#001268;fill-opacity:1" /><path
   d="m 21.269201,65.304672 c 3.10638,1.92611 5.67937,4.61896 7.07895,8.99866 l -1.21982,-0.39994 c -0.76467,-3.75756 -3.14901,-6.32533 -5.85913,-8.59872 z m -3.70235,-1.79132 c 3.19904,2.17959 6.00394,4.62818 6.7301,7.08106 l -0.79177,-0.0566 c -0.66565,-2.49283 -3.48668,-4.84046 -5.93833,-7.02444 z m -0.98972,1.18965 3.20952,4.48938 -0.28276,0.53816 c -1.1654,-1.43163 -2.19525,-2.94473 -2.98333,-4.60269 l 0.0566,-0.42485 z m 2.78595,-5.06662 1.71974,1.31981 -0.11358,4.1885 -1.57976,-1.23982 -0.0264,-4.26849 z m -3.17138,-1.877 1.77974,1.23982 -0.30171,4.34576 -1.69975,-0.53992 0.22172,-5.04566 z m 6.21733,3.32591 1.37979,0.79988 0.06,4.33936 -1.2998,-1.01985 -0.13998,-4.11939 z"
   id="_157416040"
   style="fill:#000066" /><path
   d="m 63.374361,65.304672 c -3.10638,1.92611 -5.67938,4.61896 -7.07895,8.99866 l 1.21982,-0.39994 c 0.76467,-3.75756 3.14901,-6.32533 5.85913,-8.59872 z m 3.70235,-1.79132 c -3.19905,2.17959 -6.00394,4.62818 -6.7301,7.08106 l 0.79177,-0.0566 c 0.66564,-2.49283 3.48667,-4.84046 5.93833,-7.02444 z m 0.98972,1.18965 -3.20952,4.48938 0.28276,0.53816 c 1.1654,-1.43163 2.19525,-2.94473 2.98333,-4.60269 l -0.0566,-0.42485 z m -2.78595,-5.06662 -1.71974,1.31981 0.11358,4.1885 1.57976,-1.23982 0.0264,-4.26849 z m 3.17138,-1.877 -1.77974,1.23982 0.30171,4.34576 1.69975,-0.53992 -0.22172,-5.04566 z m -6.21733,3.32591 -1.37979,0.79988 -0.06,4.33936 1.29981,-1.01985 0.13998,-4.11939 z"
   id="_157416304"
   style="fill:#000066" /><path
   d="m 15.167471,54.353662 9.13913,4.8905 0.42792,2.26186 1.22262,0.27509 1.31433,6.35765 -2.78148,-2.56751 -0.0611,-4.0041 -1.77281,-0.85584 0.12227,4.70711 -1.2532,-0.79471 0,-4.15692 -1.89507,-1.28376 0,4.95163 -1.31432,-0.76414 0.21396,-4.8905 -1.77281,-1.43659 -0.67244,5.01277 -1.1615,-0.15283 0.24453,-7.54971 z m 8.60162,11.83092 c 3.27701,2.41793 5.43498,5.49414 6.89898,8.97867 l -1.31981,-0.97986 c -1.1411,-2.86751 -3.10498,-5.50462 -5.57917,-7.99881 z m -2.89957,-0.77989 c 2.28799,1.23302 4.38435,3.38599 6.13909,7.17894 l -2.21967,-1.39979 c -0.35754,-2.09395 -1.74904,-4.00537 -3.91942,-5.77915 z m -4.29213,-2.24532 c 1.79092,1.36651 3.27075,3.17457 4.60927,5.18331 l -0.70691,0.0425 c -0.94262,-1.84354 -2.2812,-3.57135 -3.90236,-5.2258 z"
   id="_155905056"
   style="fill:#0067bc;fill-opacity:1" /><path
   d="m 69.476091,54.353662 -9.13913,4.8905 -0.42792,2.26186 -1.22262,0.27509 -1.31433,6.35765 2.78148,-2.56751 0.0611,-4.0041 1.77281,-0.85584 -0.12227,4.70711 1.25319,-0.79471 0,-4.15692 1.89508,-1.28376 0,4.95163 1.31432,-0.76414 -0.21396,-4.8905 1.77281,-1.43659 0.67244,5.01277 1.16149,-0.15283 -0.24452,-7.54971 z m -8.60162,11.83092 c -3.27702,2.41793 -5.43499,5.49414 -6.89898,8.97867 l 1.31981,-0.97986 c 1.1411,-2.86751 3.10497,-5.50462 5.57917,-7.99881 z m 2.89957,-0.77989 c -2.28799,1.23302 -4.38435,3.38599 -6.13909,7.17894 l 2.21967,-1.39979 c 0.35753,-2.09395 1.74904,-4.00537 3.91942,-5.77915 z m 4.29213,-2.24532 c -1.79092,1.36651 -3.27075,3.17457 -4.60928,5.18331 l 0.70692,0.0425 c 0.94262,-1.84354 2.28119,-3.57135 3.90236,-5.2258 z"
   id="_156747512"
   style="fill:#0067bc;fill-opacity:1" /><path
   d="m 26.188201,82.499922 c -0.16181,0.35394 0.078,0.76046 0.45134,0.80581 -0.19304,0.35244 -0.62872,0.50119 -0.99994,0.33148 -0.27798,-0.12713 -0.44445,-0.39849 -0.45169,-0.68485 -0.22132,0.1819 -0.53562,0.23338 -0.81365,0.10625 -0.37117,-0.16971 -0.54364,-0.59653 -0.40336,-0.97314 0.27843,0.25286 0.74296,0.168 0.90469,-0.18572 l 1.68703,-3.68954 c 0.16178,-0.35376 -0.0779,-0.76059 -0.45129,-0.8058 0.19304,-0.35245 0.62872,-0.5012 0.9999,-0.33149 0.27802,0.12713 0.44471,0.39854 0.4519,0.68494 0.22129,-0.18185 0.53545,-0.23347 0.81343,-0.10634 0.37122,0.16971 0.54374,0.59658 0.40341,0.97315 -0.27851,-0.25273 -0.74287,-0.16818 -0.90469,0.18571 l -0.79317,1.73457 c 0.18107,0.86641 1.16439,1.31599 1.93809,0.8861 l 0.79313,-1.73448 c 0.16173,-0.35372 -0.078,-0.76059 -0.4513,-0.80576 0.19304,-0.35249 0.62873,-0.5012 0.9999,-0.33149 0.27803,0.12713 0.44467,0.39854 0.45186,0.6849 0.22133,-0.18186 0.53549,-0.23343 0.81348,-0.10634 0.37121,0.16975 0.54369,0.59658 0.4034,0.97314 -0.27855,-0.25272 -0.74291,-0.16817 -0.90473,0.18577 l -1.68703,3.68954 c -0.16182,0.35389 0.078,0.76041 0.45133,0.8058 -0.19304,0.35245 -0.62872,0.5012 -0.99994,0.33144 -0.27798,-0.12709 -0.44449,-0.39849 -0.45168,-0.68481 -0.22133,0.18186 -0.53563,0.23334 -0.81365,0.10626 -0.37118,-0.16976 -0.5437,-0.59658 -0.40337,-0.97315 0.27834,0.25281 0.74292,0.16796 0.90465,-0.18576 l 0.20563,-0.44963 c -0.1809,-0.86667 -1.16395,-1.31629 -1.93792,-0.88653 l -0.20576,0.44997 z"
   id="_155690856"
   style="fill:#001268;fill-opacity:1" /><path
   d="m 35.391231,81.815382 0.51711,4.02287 c 0.0596,0.46374 -0.0335,1.30493 0.6514,1.27213 -0.13108,0.3799 -0.53562,0.59969 -0.93008,0.49467 -0.29535,-0.0786 -0.50506,-0.31816 -0.56027,-0.59926 -0.1876,0.21651 -0.48883,0.32 -0.78423,0.24137 -0.39441,-0.10498 -0.63613,-0.49681 -0.56105,-0.89158 0.49812,0.31833 0.79825,-0.18909 0.74015,-0.63846 l -0.0797,-0.61679 c -0.34596,0.2675 -0.82484,0.37464 -1.2999,0.24816 -0.21181,-0.0563 -0.40099,-0.15353 -0.56066,-0.27956 l -0.0256,0.0376 c -0.34903,0.51102 0.01,1.11299 0.60727,1.0844 -0.13112,0.37985 -0.53562,0.59965 -0.93008,0.49466 -0.29535,-0.0786 -0.50505,-0.3182 -0.56026,-0.59925 -0.18765,0.21646 -0.48884,0.31999 -0.78423,0.24137 -0.39442,-0.10499 -0.63613,-0.49682 -0.56106,-0.89158 0.58685,0.37503 0.97131,-0.26032 1.25157,-0.66442 l 0.38946,-0.56154 c -0.0724,-0.0838 -0.17015,-0.14739 -0.28526,-0.17805 -0.30531,-0.0813 -0.61877,0.10038 -0.70003,0.40569 -0.009,0.0356 -0.0153,0.0712 -0.0178,0.10661 -0.31294,-0.22966 -0.47006,-0.63557 -0.36416,-1.03336 0.13796,-0.5183 0.67025,-0.82676 1.18855,-0.6888 0.33912,0.0902 0.58842,0.34911 0.6817,0.66253 l 1.48614,-2.14297 c -0.0523,-0.18953 -0.20102,-0.34727 -0.40463,-0.40147 -0.0585,-0.0156 -0.11709,-0.0213 -0.17449,-0.0186 0.13112,-0.37986 0.53562,-0.59965 0.93003,-0.49467 0.29544,0.0786 0.50528,0.3182 0.56049,0.59934 0.1876,-0.21646 0.48866,-0.32004 0.78405,-0.24141 0.39442,0.10499 0.63618,0.49677 0.56106,0.89158 -0.0484,-0.0309 -0.10218,-0.0551 -0.16064,-0.0707 -0.23207,-0.0617 -0.46892,0.0285 -0.60486,0.2094 z m -1.09405,2.60865 -0.21208,-1.64116 -1.02357,1.49894 c 0.0794,0.19234 0.2515,0.34995 0.47756,0.41011 0.30048,0.08 0.60416,-0.0366 0.75809,-0.26789 z"
   id="_157574224"
   style="fill:#001268;fill-opacity:1" /><path
   d="m 52.304511,85.246012 c 0.0795,0.30579 0.39183,0.48931 0.69762,0.40985 0.0585,-0.0152 0.11248,-0.0391 0.16107,-0.0697 0.0727,0.39521 -0.17129,0.78559 -0.56636,0.88825 -0.29584,0.0769 -0.59628,-0.0285 -0.78261,-0.24606 -0.0568,0.28079 -0.26812,0.51909 -0.56399,0.59601 -0.39503,0.10261 -0.79826,-0.11955 -0.9271,-0.50019 0.0574,0.003 0.11603,-0.002 0.17458,-0.0175 0.30574,-0.0795 0.48927,-0.39187 0.40985,-0.69761 l -1.02038,-3.92653 c -0.0794,-0.30574 -0.39187,-0.48927 -0.69757,-0.40985 -0.0586,0.0153 -0.11244,0.0391 -0.16107,0.0697 -0.0728,-0.39521 0.17129,-0.78559 0.56632,-0.88825 0.29588,-0.0769 0.59645,0.0284 0.78282,0.24602 0.0568,-0.28075 0.26794,-0.51905 0.56378,-0.59592 0.39507,-0.10266 0.7983,0.1195 0.92714,0.50014 -0.0573,-0.003 -0.11608,0.002 -0.17462,0.0175 -0.30579,0.0795 -0.48932,0.39187 -0.40985,0.69762 l 1.02037,3.92652 z"
   id="_158244680"
   style="fill:#001268;fill-opacity:1" /><path
   d="m 45.326601,88.029812 c -0.40617,0.0401 -0.76998,-0.24203 -0.83817,-0.63811 0.3678,0.0784 0.7266,-0.22852 0.68845,-0.61561 l -0.39805,-4.03738 c -0.031,-0.31434 -0.31114,-0.54422 -0.62548,-0.51322 -0.0602,0.006 -0.11713,0.0211 -0.16993,0.0439 -0.0105,-0.40174 0.29123,-0.74946 0.6974,-0.78949 0.30425,-0.03 0.58482,0.12068 0.73511,0.36459 0.0998,-0.26851 0.34534,-0.47111 0.64951,-0.50111 0.40625,-0.0401 0.77006,0.24203 0.8382,0.63811 -0.0562,-0.012 -0.11502,-0.0158 -0.17523,-0.01 -0.31439,0.031 -0.54422,0.31105 -0.51322,0.62547 l 0.3054,3.09735 c 0.003,0.0252 0.004,0.0513 0.006,0.078 0.1987,0.42831 0.65227,0.70485 1.14869,0.65591 0.75454,-0.0744 1.36414,-1.00314 0.85737,-1.67624 -0.15704,-0.20853 -0.41577,-0.33263 -0.69446,-0.30514 -0.42511,0.0419 -0.73594,0.42073 -0.69402,0.84584 l 4.4e-4,0.006 c -0.15405,-0.1948 -0.25601,-0.43441 -0.28219,-0.6999 -0.0728,-0.73774 0.46664,-1.3951 1.20438,-1.46785 0.99678,-0.0983 1.81999,0.9913 1.90862,1.89047 0.11709,1.18772 -0.75112,2.24585 -1.93884,2.36298 -0.62148,0.0613 -1.2074,-0.1473 -1.64164,-0.53027 -0.17063,0.58583 -0.51071,1.12102 -1.06857,1.17601 z"
   id="_157415992"
   style="fill:#001268;fill-opacity:1" /><path
   d="m 38.729331,81.305372 c -0.40564,-0.045 -0.77291,0.23259 -0.84593,0.62775 0.36872,-0.0739 0.72371,0.23747 0.68082,0.62408 l -0.44756,4.03216 c -0.0349,0.31395 -0.31781,0.54036 -0.63175,0.5055 -0.0602,-0.007 -0.11687,-0.0225 -0.16936,-0.0459 -0.0154,0.40157 0.28202,0.75296 0.68766,0.798 0.30386,0.0337 0.58623,-0.11354 0.73954,-0.35556 0.0964,0.2697 0.33951,0.47532 0.64328,0.50905 0.40573,0.045 0.77296,-0.2326 0.84597,-0.62776 -0.0563,0.0113 -0.1152,0.0143 -0.17532,0.008 -0.31399,-0.0349 -0.54036,-0.31776 -0.5055,-0.63175 l 0.34337,-3.0934 c 0.054,-0.48699 0.73862,-0.76686 1.16364,-0.71967 0.75362,0.0836 1.35178,1.0198 0.83672,1.68663 -0.15954,0.2066 -0.4198,0.3275 -0.69814,0.29658 -0.42454,-0.0471 -0.73072,-0.42971 -0.68358,-0.85426 l 8.7e-4,-0.006 c -0.15642,0.19286 -0.26132,0.43121 -0.29074,0.69634 -0.0818,0.73682 0.44945,1.40076 1.18627,1.48255 0.99551,0.11051 1.83201,-0.9689 1.93169,-1.86688 0.13164,-1.18622 -0.72349,-2.25493 -1.90972,-2.38662 -0.62065,-0.0689 -1.20912,0.13248 -1.64805,0.51006 -0.16344,-0.58785 -0.4969,-1.1272 -1.05401,-1.18903 z"
   id="_156387760"
   style="fill:#001268;fill-opacity:1" /><path
   d="m 56.027641,83.701062 c 0.15722,0.356 0.62044,0.44656 0.90224,0.19743 0.13542,0.37836 -0.0426,0.80295 -0.41595,0.96784 -0.27961,0.12353 -0.59307,0.0679 -0.81203,-0.11683 -0.0109,0.28628 -0.18107,0.55549 -0.46068,0.67898 -0.37336,0.16493 -0.80707,0.0106 -0.99555,-0.34438 0.37389,-0.0403 0.61886,-0.44405 0.46169,-0.79988 l -1.63919,-3.71103 c -0.15717,-0.35582 -0.62057,-0.44664 -0.90219,-0.19742 -0.13546,-0.37837 0.0426,-0.80296 0.4159,-0.96784 0.27965,-0.12354 0.59325,-0.068 0.81221,0.11678 0.0109,-0.28628 0.18089,-0.55545 0.4605,-0.67894 0.37341,-0.16493 0.80712,-0.0106 0.9956,0.34434 -0.37394,0.0405 -0.61899,0.44392 -0.46173,0.79992 l 0.77063,1.7447 c 0.76809,0.4398 1.75715,0.003 1.94931,-0.86114 l -0.77058,-1.74461 c -0.15717,-0.35578 -0.62061,-0.4466 -0.90224,-0.19743 -0.13542,-0.37836 0.0426,-0.80295 0.41595,-0.96784 0.27965,-0.12353 0.59324,-0.068 0.8122,0.11678 0.0109,-0.28623 0.1809,-0.55544 0.46051,-0.67893 0.37336,-0.16493 0.80711,-0.0106 0.99555,0.34438 -0.37389,0.0405 -0.61894,0.44392 -0.46173,0.79988 l 1.63919,3.71103 c 0.15725,0.356 0.62047,0.44655 0.90228,0.19742 0.13541,0.37837 -0.0426,0.80296 -0.416,0.96789 -0.2796,0.12349 -0.59307,0.0678 -0.81198,-0.11687 -0.0109,0.28627 -0.18107,0.55549 -0.46072,0.67902 -0.37332,0.16489 -0.80708,0.0105 -0.99551,-0.34442 0.37385,-0.0403 0.61881,-0.4441 0.46168,-0.79984 l -0.19979,-0.45226 c -0.76818,-0.44011 -1.75707,-0.004 -1.94949,0.86066 l 0.19992,0.45261 z"
   id="_157414504"
   style="fill:#001268;fill-opacity:1" /><circle
   cx="420.94601"
   cy="517.00702"
   r="22.2999"
   transform="matrix(0.43853152,0,0,0.43853152,-142.27631,-215.85938)"
   id="_156748064"
   style="fill:#fb8a0a;fill-opacity:1" /><ellipse
   cx="420.94601"
   cy="515.44702"
   rx="19.9585"
   ry="19.0665"
   transform="matrix(0.43853152,0,0,0.43853152,-142.27631,-215.85938)"
   id="_155691456"
   style="fill:#ffffff" /><path
   d="m 50.228501,5.3539021 0.13191,0.59719 c -6.65827,1.47079 -10.21677,6.2327599 -12.19455,12.4841999 l -1.12852,-0.35617 c 2.09522,-6.62266 6.17273,-11.1748399 13.19116,-12.7252199 z m -0.74954,-0.89974 0.10315,0.60439 c -6.83754,1.18868 -10.87747,5.6218799 -13.11258,11.9826099 l -1.11466,-0.38854 c 2.3668,-6.7357599 6.92012,-10.9460999 14.12409,-12.1984599 z M 33.669991,15.226122 c 2.6379,-6.8750799 7.66825,-10.7202999 15.05825,-11.6692799 l 0.0768,0.60675 c -7.01892,0.90127 -11.53803,4.98953 -14.02955,11.4834299 l -1.10545,-0.4209 z"
   id="_155974624"
   style="fill:#fb8a0a;fill-opacity:1;fill-rule:nonzero" /><path
   d="m 34.415061,5.3539021 -0.13191,0.59719 c 6.65826,1.47079 10.21677,6.2327599 12.19455,12.4841999 l 1.12852,-0.35617 C 45.511001,11.456462 41.433491,6.9042821 34.415061,5.3539021 z m 0.74953,-0.89974 -0.10314,0.60439 c 6.83754,1.18868 10.87747,5.6218799 13.11258,11.9826099 l 1.11466,-0.38854 C 46.921891,9.9168621 42.368571,5.7065221 35.164591,4.4541621 z M 50.973571,15.226122 C 48.335671,8.3510421 43.305321,4.5058221 35.915321,3.5568421 l -0.0768,0.60675 c 7.01892,0.90127 11.53803,4.98953 14.02955,11.4834299 l 1.10545,-0.4209 z"
   id="_155966208"
   style="fill:#fb8a0a;fill-opacity:1;fill-rule:nonzero" />
</svg>